<mxfile host="app.diagrams.net" modified="2024-05-22T18:33:25.377Z" agent="Mozilla/5.0 (Windows NT 10.0; Win64; x64) AppleWebKit/537.36 (KHTML, like Gecko) Chrome/124.0.0.0 Safari/537.36" etag="L-BUIWI75e-23gitDBph" version="24.3.1" type="device">
  <diagram name="Page-1" id="FLJkDilrDJFzRTb0kBJT">
    <mxGraphModel dx="3143" dy="1689" grid="1" gridSize="10" guides="1" tooltips="1" connect="1" arrows="1" fold="1" page="1" pageScale="1" pageWidth="1654" pageHeight="1169" math="0" shadow="0">
      <root>
        <mxCell id="0" />
        <mxCell id="1" parent="0" />
        <mxCell id="wprRpwSW_MgwPWAjr0UR-17" value="Abstract class" style="rounded=0;whiteSpace=wrap;html=1;" parent="1" vertex="1">
          <mxGeometry x="-590" y="240" width="120" height="60" as="geometry" />
        </mxCell>
        <mxCell id="wprRpwSW_MgwPWAjr0UR-19" value="New" style="rounded=0;whiteSpace=wrap;html=1;" parent="1" vertex="1">
          <mxGeometry x="-977" y="687.5" width="120" height="60" as="geometry" />
        </mxCell>
        <mxCell id="-AKxxV9wp2_2wxKhXHeJ-24" style="edgeStyle=orthogonalEdgeStyle;rounded=0;orthogonalLoop=1;jettySize=auto;html=1;" edge="1" parent="1" source="wprRpwSW_MgwPWAjr0UR-20" target="wprRpwSW_MgwPWAjr0UR-59">
          <mxGeometry relative="1" as="geometry">
            <Array as="points">
              <mxPoint x="-1140" y="430" />
              <mxPoint x="-1240" y="430" />
            </Array>
          </mxGeometry>
        </mxCell>
        <mxCell id="wprRpwSW_MgwPWAjr0UR-20" value="Abstraction" style="rounded=0;whiteSpace=wrap;html=1;" parent="1" vertex="1">
          <mxGeometry x="-1200" y="280" width="120" height="60" as="geometry" />
        </mxCell>
        <mxCell id="-AKxxV9wp2_2wxKhXHeJ-4" style="edgeStyle=orthogonalEdgeStyle;rounded=0;orthogonalLoop=1;jettySize=auto;html=1;" edge="1" parent="1" source="wprRpwSW_MgwPWAjr0UR-34" target="wprRpwSW_MgwPWAjr0UR-47">
          <mxGeometry relative="1" as="geometry" />
        </mxCell>
        <mxCell id="-AKxxV9wp2_2wxKhXHeJ-5" style="edgeStyle=orthogonalEdgeStyle;rounded=0;orthogonalLoop=1;jettySize=auto;html=1;" edge="1" parent="1" source="wprRpwSW_MgwPWAjr0UR-34" target="-AKxxV9wp2_2wxKhXHeJ-3">
          <mxGeometry relative="1" as="geometry" />
        </mxCell>
        <mxCell id="-AKxxV9wp2_2wxKhXHeJ-18" style="edgeStyle=orthogonalEdgeStyle;rounded=0;orthogonalLoop=1;jettySize=auto;html=1;" edge="1" parent="1" source="wprRpwSW_MgwPWAjr0UR-34">
          <mxGeometry relative="1" as="geometry">
            <mxPoint x="-1120" y="280" as="targetPoint" />
            <Array as="points">
              <mxPoint x="-1120" y="280" />
            </Array>
          </mxGeometry>
        </mxCell>
        <mxCell id="-AKxxV9wp2_2wxKhXHeJ-19" style="edgeStyle=orthogonalEdgeStyle;rounded=0;orthogonalLoop=1;jettySize=auto;html=1;" edge="1" parent="1" source="wprRpwSW_MgwPWAjr0UR-34" target="wprRpwSW_MgwPWAjr0UR-50">
          <mxGeometry relative="1" as="geometry">
            <Array as="points">
              <mxPoint x="-1120" y="200" />
              <mxPoint x="-1333" y="200" />
            </Array>
          </mxGeometry>
        </mxCell>
        <mxCell id="-AKxxV9wp2_2wxKhXHeJ-20" style="edgeStyle=orthogonalEdgeStyle;rounded=0;orthogonalLoop=1;jettySize=auto;html=1;entryX=0.5;entryY=0;entryDx=0;entryDy=0;" edge="1" parent="1" source="wprRpwSW_MgwPWAjr0UR-34" target="wprRpwSW_MgwPWAjr0UR-39">
          <mxGeometry relative="1" as="geometry">
            <Array as="points">
              <mxPoint x="-1120" y="200" />
              <mxPoint x="-977" y="200" />
            </Array>
          </mxGeometry>
        </mxCell>
        <mxCell id="-AKxxV9wp2_2wxKhXHeJ-21" style="edgeStyle=orthogonalEdgeStyle;rounded=0;orthogonalLoop=1;jettySize=auto;html=1;entryX=0.5;entryY=0;entryDx=0;entryDy=0;" edge="1" parent="1" source="wprRpwSW_MgwPWAjr0UR-34" target="wprRpwSW_MgwPWAjr0UR-46">
          <mxGeometry relative="1" as="geometry">
            <Array as="points">
              <mxPoint x="-1120" y="200" />
              <mxPoint x="-807" y="200" />
            </Array>
          </mxGeometry>
        </mxCell>
        <mxCell id="wprRpwSW_MgwPWAjr0UR-34" value="OOP" style="ellipse;whiteSpace=wrap;html=1;aspect=fixed;" parent="1" vertex="1">
          <mxGeometry x="-1160" y="80" width="80" height="80" as="geometry" />
        </mxCell>
        <mxCell id="wprRpwSW_MgwPWAjr0UR-39" value="Encapsulation" style="rounded=0;whiteSpace=wrap;html=1;" parent="1" vertex="1">
          <mxGeometry x="-1037" y="280" width="120" height="60" as="geometry" />
        </mxCell>
        <mxCell id="-AKxxV9wp2_2wxKhXHeJ-22" style="edgeStyle=orthogonalEdgeStyle;rounded=0;orthogonalLoop=1;jettySize=auto;html=1;entryX=0;entryY=0.5;entryDx=0;entryDy=0;" edge="1" parent="1" source="wprRpwSW_MgwPWAjr0UR-46" target="wprRpwSW_MgwPWAjr0UR-17">
          <mxGeometry relative="1" as="geometry">
            <mxPoint x="-487" y="300" as="targetPoint" />
            <Array as="points">
              <mxPoint x="-620" y="310" />
              <mxPoint x="-620" y="270" />
            </Array>
          </mxGeometry>
        </mxCell>
        <mxCell id="-AKxxV9wp2_2wxKhXHeJ-28" style="edgeStyle=orthogonalEdgeStyle;rounded=0;orthogonalLoop=1;jettySize=auto;html=1;entryX=0.5;entryY=0;entryDx=0;entryDy=0;" edge="1" parent="1" source="wprRpwSW_MgwPWAjr0UR-46" target="wprRpwSW_MgwPWAjr0UR-67">
          <mxGeometry relative="1" as="geometry">
            <Array as="points">
              <mxPoint x="-807" y="390" />
              <mxPoint x="-917" y="390" />
            </Array>
          </mxGeometry>
        </mxCell>
        <mxCell id="wprRpwSW_MgwPWAjr0UR-46" value="Inheritance" style="rounded=0;whiteSpace=wrap;html=1;" parent="1" vertex="1">
          <mxGeometry x="-867" y="280" width="120" height="60" as="geometry" />
        </mxCell>
        <mxCell id="wprRpwSW_MgwPWAjr0UR-47" value="Reference type" style="rounded=0;whiteSpace=wrap;html=1;" parent="1" vertex="1">
          <mxGeometry x="-967" y="90" width="120" height="60" as="geometry" />
        </mxCell>
        <mxCell id="-AKxxV9wp2_2wxKhXHeJ-23" style="edgeStyle=orthogonalEdgeStyle;rounded=0;orthogonalLoop=1;jettySize=auto;html=1;" edge="1" parent="1" source="wprRpwSW_MgwPWAjr0UR-50" target="wprRpwSW_MgwPWAjr0UR-53">
          <mxGeometry relative="1" as="geometry" />
        </mxCell>
        <mxCell id="-AKxxV9wp2_2wxKhXHeJ-27" style="edgeStyle=orthogonalEdgeStyle;rounded=0;orthogonalLoop=1;jettySize=auto;html=1;" edge="1" parent="1" source="wprRpwSW_MgwPWAjr0UR-50" target="wprRpwSW_MgwPWAjr0UR-67">
          <mxGeometry relative="1" as="geometry">
            <Array as="points">
              <mxPoint x="-1337" y="390" />
              <mxPoint x="-917" y="390" />
            </Array>
          </mxGeometry>
        </mxCell>
        <mxCell id="wprRpwSW_MgwPWAjr0UR-50" value="Polymorphism" style="rounded=0;whiteSpace=wrap;html=1;" parent="1" vertex="1">
          <mxGeometry x="-1393" y="280" width="120" height="60" as="geometry" />
        </mxCell>
        <mxCell id="wprRpwSW_MgwPWAjr0UR-53" value="Interface" style="rounded=0;whiteSpace=wrap;html=1;" parent="1" vertex="1">
          <mxGeometry x="-1590" y="420" width="120" height="60" as="geometry" />
        </mxCell>
        <mxCell id="-AKxxV9wp2_2wxKhXHeJ-48" value="" style="edgeStyle=orthogonalEdgeStyle;rounded=0;orthogonalLoop=1;jettySize=auto;html=1;" edge="1" parent="1" source="wprRpwSW_MgwPWAjr0UR-55" target="-AKxxV9wp2_2wxKhXHeJ-46">
          <mxGeometry relative="1" as="geometry" />
        </mxCell>
        <mxCell id="-AKxxV9wp2_2wxKhXHeJ-53" style="edgeStyle=orthogonalEdgeStyle;rounded=0;orthogonalLoop=1;jettySize=auto;html=1;" edge="1" parent="1" source="wprRpwSW_MgwPWAjr0UR-55" target="-AKxxV9wp2_2wxKhXHeJ-49">
          <mxGeometry relative="1" as="geometry" />
        </mxCell>
        <mxCell id="-AKxxV9wp2_2wxKhXHeJ-54" style="edgeStyle=orthogonalEdgeStyle;rounded=0;orthogonalLoop=1;jettySize=auto;html=1;entryX=0;entryY=0.5;entryDx=0;entryDy=0;" edge="1" parent="1" source="wprRpwSW_MgwPWAjr0UR-55" target="-AKxxV9wp2_2wxKhXHeJ-52">
          <mxGeometry relative="1" as="geometry" />
        </mxCell>
        <mxCell id="-AKxxV9wp2_2wxKhXHeJ-55" style="edgeStyle=orthogonalEdgeStyle;rounded=0;orthogonalLoop=1;jettySize=auto;html=1;entryX=0;entryY=0.5;entryDx=0;entryDy=0;" edge="1" parent="1" source="wprRpwSW_MgwPWAjr0UR-55" target="-AKxxV9wp2_2wxKhXHeJ-50">
          <mxGeometry relative="1" as="geometry" />
        </mxCell>
        <mxCell id="-AKxxV9wp2_2wxKhXHeJ-56" style="edgeStyle=orthogonalEdgeStyle;rounded=0;orthogonalLoop=1;jettySize=auto;html=1;entryX=0;entryY=0.5;entryDx=0;entryDy=0;" edge="1" parent="1" source="wprRpwSW_MgwPWAjr0UR-55" target="-AKxxV9wp2_2wxKhXHeJ-51">
          <mxGeometry relative="1" as="geometry" />
        </mxCell>
        <mxCell id="wprRpwSW_MgwPWAjr0UR-55" value="Method" style="rounded=0;whiteSpace=wrap;html=1;" parent="1" vertex="1">
          <mxGeometry x="-590" y="554.5" width="120" height="60" as="geometry" />
        </mxCell>
        <mxCell id="-AKxxV9wp2_2wxKhXHeJ-26" value="" style="edgeStyle=orthogonalEdgeStyle;rounded=0;orthogonalLoop=1;jettySize=auto;html=1;" edge="1" parent="1" source="wprRpwSW_MgwPWAjr0UR-59" target="-AKxxV9wp2_2wxKhXHeJ-25">
          <mxGeometry relative="1" as="geometry" />
        </mxCell>
        <mxCell id="wprRpwSW_MgwPWAjr0UR-59" value="Roles" style="rounded=0;whiteSpace=wrap;html=1;" parent="1" vertex="1">
          <mxGeometry x="-1300" y="470" width="120" height="60" as="geometry" />
        </mxCell>
        <mxCell id="wprRpwSW_MgwPWAjr0UR-62" value="Cohesion" style="rounded=0;whiteSpace=wrap;html=1;" parent="1" vertex="1">
          <mxGeometry x="-1451" y="760" width="120" height="60" as="geometry" />
        </mxCell>
        <mxCell id="wprRpwSW_MgwPWAjr0UR-66" value="Coupling" style="rounded=0;whiteSpace=wrap;html=1;" parent="1" vertex="1">
          <mxGeometry x="-1305" y="760" width="120" height="60" as="geometry" />
        </mxCell>
        <mxCell id="-AKxxV9wp2_2wxKhXHeJ-29" style="edgeStyle=orthogonalEdgeStyle;rounded=0;orthogonalLoop=1;jettySize=auto;html=1;" edge="1" parent="1" source="wprRpwSW_MgwPWAjr0UR-67">
          <mxGeometry relative="1" as="geometry">
            <mxPoint x="-1467" y="450" as="targetPoint" />
          </mxGeometry>
        </mxCell>
        <mxCell id="-AKxxV9wp2_2wxKhXHeJ-30" style="edgeStyle=orthogonalEdgeStyle;rounded=0;orthogonalLoop=1;jettySize=auto;html=1;" edge="1" parent="1" source="wprRpwSW_MgwPWAjr0UR-67" target="-AKxxV9wp2_2wxKhXHeJ-14">
          <mxGeometry relative="1" as="geometry" />
        </mxCell>
        <mxCell id="-AKxxV9wp2_2wxKhXHeJ-32" style="edgeStyle=orthogonalEdgeStyle;rounded=0;orthogonalLoop=1;jettySize=auto;html=1;" edge="1" parent="1" source="wprRpwSW_MgwPWAjr0UR-67" target="wprRpwSW_MgwPWAjr0UR-69">
          <mxGeometry relative="1" as="geometry">
            <Array as="points">
              <mxPoint x="-1089" y="450" />
            </Array>
          </mxGeometry>
        </mxCell>
        <mxCell id="-AKxxV9wp2_2wxKhXHeJ-59" style="edgeStyle=orthogonalEdgeStyle;rounded=0;orthogonalLoop=1;jettySize=auto;html=1;" edge="1" parent="1" source="wprRpwSW_MgwPWAjr0UR-67" target="wprRpwSW_MgwPWAjr0UR-17">
          <mxGeometry relative="1" as="geometry">
            <Array as="points">
              <mxPoint x="-620" y="450" />
              <mxPoint x="-620" y="270" />
            </Array>
          </mxGeometry>
        </mxCell>
        <mxCell id="-AKxxV9wp2_2wxKhXHeJ-60" style="edgeStyle=orthogonalEdgeStyle;rounded=0;orthogonalLoop=1;jettySize=auto;html=1;" edge="1" parent="1" source="wprRpwSW_MgwPWAjr0UR-67" target="wprRpwSW_MgwPWAjr0UR-71">
          <mxGeometry relative="1" as="geometry">
            <Array as="points">
              <mxPoint x="-917" y="510" />
              <mxPoint x="-780" y="510" />
              <mxPoint x="-780" y="602" />
            </Array>
          </mxGeometry>
        </mxCell>
        <mxCell id="-AKxxV9wp2_2wxKhXHeJ-69" style="edgeStyle=orthogonalEdgeStyle;rounded=0;orthogonalLoop=1;jettySize=auto;html=1;" edge="1" parent="1" source="wprRpwSW_MgwPWAjr0UR-67">
          <mxGeometry relative="1" as="geometry">
            <mxPoint x="-917" y="550" as="targetPoint" />
          </mxGeometry>
        </mxCell>
        <mxCell id="wprRpwSW_MgwPWAjr0UR-67" value="Class" style="rounded=0;whiteSpace=wrap;html=1;" parent="1" vertex="1">
          <mxGeometry x="-977" y="420" width="120" height="60" as="geometry" />
        </mxCell>
        <mxCell id="wprRpwSW_MgwPWAjr0UR-69" value="Collaborations" style="rounded=0;whiteSpace=wrap;html=1;" parent="1" vertex="1">
          <mxGeometry x="-1149" y="760" width="120" height="60" as="geometry" />
        </mxCell>
        <mxCell id="-AKxxV9wp2_2wxKhXHeJ-37" value="" style="edgeStyle=orthogonalEdgeStyle;rounded=0;orthogonalLoop=1;jettySize=auto;html=1;" edge="1" parent="1" source="wprRpwSW_MgwPWAjr0UR-70" target="wprRpwSW_MgwPWAjr0UR-19">
          <mxGeometry relative="1" as="geometry" />
        </mxCell>
        <mxCell id="wprRpwSW_MgwPWAjr0UR-70" value="Object&amp;nbsp;" style="rounded=0;whiteSpace=wrap;html=1;" parent="1" vertex="1">
          <mxGeometry x="-977" y="552.5" width="120" height="60" as="geometry" />
        </mxCell>
        <mxCell id="-AKxxV9wp2_2wxKhXHeJ-38" style="edgeStyle=orthogonalEdgeStyle;rounded=0;orthogonalLoop=1;jettySize=auto;html=1;entryX=0;entryY=0.5;entryDx=0;entryDy=0;" edge="1" parent="1" source="wprRpwSW_MgwPWAjr0UR-71" target="-AKxxV9wp2_2wxKhXHeJ-9">
          <mxGeometry relative="1" as="geometry">
            <Array as="points">
              <mxPoint x="-790" y="715.5" />
            </Array>
          </mxGeometry>
        </mxCell>
        <mxCell id="-AKxxV9wp2_2wxKhXHeJ-42" style="edgeStyle=orthogonalEdgeStyle;rounded=0;orthogonalLoop=1;jettySize=auto;html=1;entryX=0;entryY=0.5;entryDx=0;entryDy=0;" edge="1" parent="1" source="wprRpwSW_MgwPWAjr0UR-71" target="-AKxxV9wp2_2wxKhXHeJ-10">
          <mxGeometry relative="1" as="geometry">
            <Array as="points">
              <mxPoint x="-790" y="798.5" />
            </Array>
          </mxGeometry>
        </mxCell>
        <mxCell id="-AKxxV9wp2_2wxKhXHeJ-43" style="edgeStyle=orthogonalEdgeStyle;rounded=0;orthogonalLoop=1;jettySize=auto;html=1;entryX=0;entryY=0.5;entryDx=0;entryDy=0;" edge="1" parent="1" source="wprRpwSW_MgwPWAjr0UR-71" target="-AKxxV9wp2_2wxKhXHeJ-13">
          <mxGeometry relative="1" as="geometry">
            <Array as="points">
              <mxPoint x="-790" y="888.5" />
            </Array>
          </mxGeometry>
        </mxCell>
        <mxCell id="wprRpwSW_MgwPWAjr0UR-71" value="Field" style="rounded=0;whiteSpace=wrap;html=1;" parent="1" vertex="1">
          <mxGeometry x="-827" y="552.5" width="120" height="60" as="geometry" />
        </mxCell>
        <mxCell id="-AKxxV9wp2_2wxKhXHeJ-3" value="Value type" style="rounded=0;whiteSpace=wrap;html=1;" vertex="1" parent="1">
          <mxGeometry x="-1380" y="90" width="120" height="60" as="geometry" />
        </mxCell>
        <mxCell id="-AKxxV9wp2_2wxKhXHeJ-6" value="Stack" style="text;html=1;align=center;verticalAlign=middle;resizable=0;points=[];autosize=1;strokeColor=none;fillColor=none;" vertex="1" parent="1">
          <mxGeometry x="-1230" y="90" width="50" height="30" as="geometry" />
        </mxCell>
        <mxCell id="-AKxxV9wp2_2wxKhXHeJ-7" value="Heap" style="text;html=1;align=center;verticalAlign=middle;resizable=0;points=[];autosize=1;strokeColor=none;fillColor=none;" vertex="1" parent="1">
          <mxGeometry x="-1047" y="90" width="50" height="30" as="geometry" />
        </mxCell>
        <mxCell id="-AKxxV9wp2_2wxKhXHeJ-9" value="Private" style="rounded=0;whiteSpace=wrap;html=1;" vertex="1" parent="1">
          <mxGeometry x="-770" y="687.5" width="120" height="56" as="geometry" />
        </mxCell>
        <mxCell id="-AKxxV9wp2_2wxKhXHeJ-10" value="Public" style="rounded=0;whiteSpace=wrap;html=1;" vertex="1" parent="1">
          <mxGeometry x="-770" y="768.5" width="120" height="60" as="geometry" />
        </mxCell>
        <mxCell id="-AKxxV9wp2_2wxKhXHeJ-13" value="Protected" style="rounded=0;whiteSpace=wrap;html=1;" vertex="1" parent="1">
          <mxGeometry x="-770" y="852.5" width="120" height="66" as="geometry" />
        </mxCell>
        <mxCell id="-AKxxV9wp2_2wxKhXHeJ-31" value="" style="edgeStyle=orthogonalEdgeStyle;rounded=0;orthogonalLoop=1;jettySize=auto;html=1;" edge="1" parent="1" source="-AKxxV9wp2_2wxKhXHeJ-14" target="-AKxxV9wp2_2wxKhXHeJ-15">
          <mxGeometry relative="1" as="geometry" />
        </mxCell>
        <mxCell id="-AKxxV9wp2_2wxKhXHeJ-14" value="Parent Class" style="rounded=0;whiteSpace=wrap;html=1;" vertex="1" parent="1">
          <mxGeometry x="-437" y="420" width="120" height="60" as="geometry" />
        </mxCell>
        <mxCell id="-AKxxV9wp2_2wxKhXHeJ-15" value="Child Class" style="rounded=0;whiteSpace=wrap;html=1;" vertex="1" parent="1">
          <mxGeometry x="-277" y="420" width="120" height="60" as="geometry" />
        </mxCell>
        <mxCell id="-AKxxV9wp2_2wxKhXHeJ-25" value="Responsibility" style="rounded=0;whiteSpace=wrap;html=1;" vertex="1" parent="1">
          <mxGeometry x="-1300" y="589" width="120" height="60" as="geometry" />
        </mxCell>
        <mxCell id="-AKxxV9wp2_2wxKhXHeJ-33" value="" style="endArrow=classic;html=1;rounded=0;" edge="1" parent="1" target="wprRpwSW_MgwPWAjr0UR-62">
          <mxGeometry width="50" height="50" relative="1" as="geometry">
            <mxPoint x="-1087" y="700" as="sourcePoint" />
            <mxPoint x="-1197" y="630" as="targetPoint" />
            <Array as="points">
              <mxPoint x="-1391" y="700" />
            </Array>
          </mxGeometry>
        </mxCell>
        <mxCell id="-AKxxV9wp2_2wxKhXHeJ-34" value="" style="endArrow=classic;html=1;rounded=0;entryX=0.5;entryY=0;entryDx=0;entryDy=0;" edge="1" parent="1" target="wprRpwSW_MgwPWAjr0UR-66">
          <mxGeometry width="50" height="50" relative="1" as="geometry">
            <mxPoint x="-1245" y="700" as="sourcePoint" />
            <mxPoint x="-1197" y="630" as="targetPoint" />
          </mxGeometry>
        </mxCell>
        <mxCell id="-AKxxV9wp2_2wxKhXHeJ-46" value="Abstract Method" style="rounded=0;whiteSpace=wrap;html=1;" vertex="1" parent="1">
          <mxGeometry x="-590" y="654.5" width="120" height="60" as="geometry" />
        </mxCell>
        <mxCell id="-AKxxV9wp2_2wxKhXHeJ-49" value="Method Call" style="rounded=0;whiteSpace=wrap;html=1;" vertex="1" parent="1">
          <mxGeometry x="-350" y="584.5" width="120" height="60" as="geometry" />
        </mxCell>
        <mxCell id="-AKxxV9wp2_2wxKhXHeJ-50" value="Virtual" style="rounded=0;whiteSpace=wrap;html=1;" vertex="1" parent="1">
          <mxGeometry x="-350" y="679.5" width="120" height="60" as="geometry" />
        </mxCell>
        <mxCell id="-AKxxV9wp2_2wxKhXHeJ-51" value="Override" style="rounded=0;whiteSpace=wrap;html=1;" vertex="1" parent="1">
          <mxGeometry x="-350" y="774.5" width="120" height="60" as="geometry" />
        </mxCell>
        <mxCell id="-AKxxV9wp2_2wxKhXHeJ-52" value="Overload" style="rounded=0;whiteSpace=wrap;html=1;" vertex="1" parent="1">
          <mxGeometry x="-350" y="864.5" width="120" height="60" as="geometry" />
        </mxCell>
        <mxCell id="-AKxxV9wp2_2wxKhXHeJ-57" value="" style="endArrow=classic;html=1;rounded=0;entryX=0.5;entryY=0;entryDx=0;entryDy=0;" edge="1" parent="1" target="wprRpwSW_MgwPWAjr0UR-55">
          <mxGeometry width="50" height="50" relative="1" as="geometry">
            <mxPoint x="-530" y="450" as="sourcePoint" />
            <mxPoint x="-487" y="660" as="targetPoint" />
          </mxGeometry>
        </mxCell>
        <mxCell id="-AKxxV9wp2_2wxKhXHeJ-62" value="implement" style="text;html=1;align=center;verticalAlign=middle;resizable=0;points=[];autosize=1;strokeColor=none;fillColor=none;" vertex="1" parent="1">
          <mxGeometry x="-1123" y="428" width="80" height="30" as="geometry" />
        </mxCell>
        <mxCell id="-AKxxV9wp2_2wxKhXHeJ-63" value="forms" style="text;html=1;align=center;verticalAlign=middle;resizable=0;points=[];autosize=1;strokeColor=none;fillColor=none;" vertex="1" parent="1">
          <mxGeometry x="-942" y="370" width="50" height="30" as="geometry" />
        </mxCell>
        <mxCell id="-AKxxV9wp2_2wxKhXHeJ-64" value="have" style="text;html=1;align=center;verticalAlign=middle;resizable=0;points=[];autosize=1;strokeColor=none;fillColor=none;" vertex="1" parent="1">
          <mxGeometry x="-1245" y="548" width="50" height="30" as="geometry" />
        </mxCell>
        <mxCell id="-AKxxV9wp2_2wxKhXHeJ-65" value="availability" style="text;html=1;align=center;verticalAlign=middle;resizable=0;points=[];autosize=1;strokeColor=none;fillColor=none;" vertex="1" parent="1">
          <mxGeometry x="-790" y="630.5" width="80" height="30" as="geometry" />
        </mxCell>
        <mxCell id="-AKxxV9wp2_2wxKhXHeJ-66" value="forms" style="text;html=1;align=center;verticalAlign=middle;resizable=0;points=[];autosize=1;strokeColor=none;fillColor=none;" vertex="1" parent="1">
          <mxGeometry x="-925" y="630.5" width="50" height="30" as="geometry" />
        </mxCell>
        <mxCell id="-AKxxV9wp2_2wxKhXHeJ-67" value="have" style="text;html=1;align=center;verticalAlign=middle;resizable=0;points=[];autosize=1;strokeColor=none;fillColor=none;" vertex="1" parent="1">
          <mxGeometry x="-775" y="418" width="50" height="30" as="geometry" />
        </mxCell>
        <mxCell id="-AKxxV9wp2_2wxKhXHeJ-68" value="includes" style="text;html=1;align=center;verticalAlign=middle;resizable=0;points=[];autosize=1;strokeColor=none;fillColor=none;" vertex="1" parent="1">
          <mxGeometry x="-468" y="552.5" width="70" height="30" as="geometry" />
        </mxCell>
      </root>
    </mxGraphModel>
  </diagram>
</mxfile>
